<?xml version="1.0" standalone="no"?>
<!DOCTYPE svg PUBLIC "-//W3C//DTD SVG 20010904//EN"
 "http://www.w3.org/TR/2001/REC-SVG-20010904/DTD/svg10.dtd">
<svg version="1.0" xmlns="http://www.w3.org/2000/svg"
 width="742.000000pt" height="248.000000pt" viewBox="0 0 742.000000 248.000000"
 preserveAspectRatio="xMidYMid meet">

<g transform="translate(0.000000,248.000000) scale(0.100000,-0.100000)"
fill="#000000" stroke="none">
<path d="M2547 1769 l-548 -500 -154 -39 c-191 -48 -385 -113 -528 -175 -109
-48 -265 -139 -302 -176 l-20 -21 40 17 c359 149 725 245 1215 315 477 69 926
95 1485 87 385 -6 498 -12 810 -42 591 -58 1209 -196 1541 -345 37 -17 69 -28
71 -26 8 8 -141 103 -237 151 -175 88 -381 159 -647 224 l-122 30 -441 415
c-243 229 -445 416 -450 416 -4 0 -92 -86 -194 -191 -107 -109 -192 -189 -199
-186 -8 3 -55 33 -107 66 -51 34 -95 59 -98 56 -3 -2 62 -75 144 -161 82 -86
172 -182 201 -213 l51 -56 -46 -3 -47 -4 -426 431 c-235 237 -431 431 -436
431 -5 0 -256 -225 -556 -501z m498 -38 c13 -70 59 -226 90 -302 5 -15 -5 -18
-77 -23 -308 -25 -458 -40 -642 -67 -115 -16 -210 -28 -212 -26 -2 1 180 172
404 379 l407 376 7 -126 c4 -69 15 -164 23 -211z m1196 76 c17 -109 76 -214
173 -312 44 -45 96 -93 115 -106 l34 -25 -114 12 c-63 7 -123 13 -134 14 -11
0 -51 28 -90 61 -38 34 -115 95 -170 136 -55 41 -100 78 -100 82 0 4 61 65
135 136 130 123 135 127 138 99 1 -16 7 -60 13 -97z"/>
<path d="M1545 577 c-86 -39 -138 -118 -138 -208 0 -66 23 -110 85 -163 108
-93 282 -55 349 77 30 58 23 149 -14 206 -43 65 -99 95 -182 98 -44 2 -81 -2
-100 -10z m154 -22 c43 -22 56 -65 55 -185 -2 -156 -26 -190 -130 -190 -65 0
-100 36 -109 115 -9 67 0 197 15 225 24 46 113 64 169 35z"/>
<path d="M3062 569 c-94 -47 -147 -154 -122 -249 18 -67 100 -144 169 -159
216 -46 372 202 223 356 -72 74 -182 95 -270 52z m167 -13 c15 -8 32 -26 39
-41 15 -33 16 -231 1 -274 -14 -40 -54 -61 -114 -61 -92 0 -123 66 -112 236 5
90 21 128 60 144 34 14 95 12 126 -4z"/>
<path d="M5477 518 c-18 -40 -57 -130 -87 -200 -54 -126 -55 -127 -90 -130
-69 -6 -29 -23 55 -23 87 0 124 18 49 23 l-42 3 21 50 21 49 77 0 76 0 21 -49
20 -50 -34 -3 c-19 -2 -34 -7 -34 -13 0 -6 47 -11 115 -13 98 -2 115 0 115 13
0 10 -10 15 -33 15 -32 0 -34 2 -69 87 -92 227 -131 313 -139 313 -5 0 -24
-33 -42 -72z m59 -183 c6 -25 5 -25 -55 -25 -34 0 -61 4 -61 9 0 5 14 40 31
78 l32 68 23 -53 c13 -28 26 -63 30 -77z"/>
<path d="M6953 570 c-34 -21 -63 -66 -63 -100 0 -33 28 -78 58 -93 15 -8 61
-22 102 -31 78 -17 120 -45 120 -78 0 -56 -58 -93 -132 -86 -52 5 -88 31 -114
81 -23 44 -34 32 -34 -38 0 -65 6 -75 27 -54 9 9 27 8 72 -5 96 -27 175 1 214
75 32 60 7 137 -55 170 -9 5 -50 16 -90 24 -86 19 -118 37 -118 69 0 34 33 58
87 63 58 5 89 -10 121 -57 13 -19 27 -36 33 -38 5 -2 9 24 9 57 0 46 -3 61
-14 61 -8 0 -16 -5 -18 -12 -3 -9 -12 -9 -38 0 -52 19 -130 15 -167 -8z"/>
<path d="M106 543 c-16 -100 1 -135 30 -63 21 51 57 80 100 80 l34 0 0 -185 0
-185 -40 0 c-29 0 -40 -4 -40 -15 0 -13 21 -15 130 -15 109 0 130 2 130 15 0
11 -11 15 -40 15 l-40 0 0 185 0 185 34 0 c43 0 91 -38 106 -85 16 -49 30 -43
30 13 0 99 16 92 -220 92 l-207 0 -7 -37z"/>
<path d="M640 570 c0 -5 12 -10 28 -10 25 0 33 -12 123 -202 52 -111 100 -203
106 -205 5 -2 29 37 52 87 23 49 44 90 46 90 3 0 25 -41 50 -90 25 -50 49 -89
54 -86 4 3 48 95 96 206 85 191 90 200 117 200 15 0 28 5 28 10 0 6 -32 10
-75 10 -43 0 -75 -4 -75 -10 0 -5 14 -10 30 -10 17 0 30 -2 30 -5 0 -9 -112
-260 -119 -268 -9 -9 -81 134 -81 159 0 8 11 37 25 64 20 40 30 50 50 50 14 0
25 5 25 10 0 6 -92 10 -255 10 -163 0 -255 -4 -255 -10z m295 -105 l44 -94
-23 -53 -23 -53 -22 42 c-12 24 -43 90 -70 148 l-50 105 50 0 50 0 44 -95z
m117 55 c-9 -22 -20 -40 -23 -40 -5 0 -39 65 -39 75 0 3 18 5 39 5 l40 0 -17
-40z"/>
<path d="M2240 570 c0 -5 16 -10 35 -10 l35 0 0 -185 0 -185 -35 0 c-24 0 -35
-5 -35 -15 0 -12 16 -15 85 -15 69 0 85 3 85 15 0 11 -11 15 -40 15 l-40 0 0
177 c0 97 3 173 7 169 4 -4 37 -89 73 -188 36 -100 70 -183 76 -185 6 -2 40
76 79 187 37 104 69 190 71 190 2 0 4 -78 4 -174 l0 -175 -37 -3 c-21 -2 -38
-7 -38 -13 0 -6 48 -11 118 -13 100 -2 117 0 117 13 0 11 -10 15 -35 15 l-35
0 0 185 0 185 35 0 c19 0 35 5 35 10 0 6 -36 10 -89 10 l-89 0 -30 -82 c-16
-46 -38 -107 -48 -135 -10 -29 -21 -53 -24 -53 -3 0 -18 37 -34 83 -16 45 -37
106 -48 135 l-19 52 -90 0 c-53 0 -89 -4 -89 -10z"/>
<path d="M3530 570 c0 -5 15 -10 34 -10 l34 0 4 -168 c3 -183 5 -190 62 -219
41 -22 168 -22 218 0 65 27 73 50 76 229 l4 158 34 0 c19 0 34 5 34 10 0 6
-37 10 -90 10 -53 0 -90 -4 -90 -10 0 -5 18 -10 40 -10 l40 0 0 -150 c0 -90
-4 -159 -11 -174 -26 -57 -145 -76 -196 -32 l-28 24 -3 166 -4 166 41 0 c23 0
41 5 41 10 0 6 -47 10 -120 10 -73 0 -120 -4 -120 -10z"/>
<path d="M4150 570 c0 -5 16 -10 35 -10 l35 0 0 -185 0 -185 -35 0 c-24 0 -35
-5 -35 -15 0 -12 17 -15 90 -15 73 0 90 3 90 15 0 11 -11 15 -40 15 l-40 0 0
183 c1 182 1 182 20 157 131 -170 297 -374 305 -375 6 0 11 76 13 203 l2 202
35 0 c19 0 35 5 35 10 0 6 -37 10 -90 10 -53 0 -90 -4 -90 -10 0 -5 18 -10 40
-10 l40 0 0 -127 -1 -128 -24 30 c-14 17 -62 78 -108 137 l-82 107 -97 0 c-59
1 -98 -3 -98 -9z"/>
<path d="M4776 549 c-18 -91 4 -144 29 -70 15 47 58 81 101 81 l34 0 0 -185 0
-185 -40 0 c-29 0 -40 -4 -40 -15 0 -13 21 -15 130 -15 109 0 130 2 130 15 0
11 -11 15 -40 15 l-40 0 0 185 0 185 34 0 c43 0 86 -34 101 -81 25 -74 47 -21
29 70 l-6 31 -208 0 -207 0 -7 -31z"/>
<path d="M5870 570 c0 -5 18 -10 40 -10 l40 0 0 -185 0 -185 -40 0 c-29 0 -40
-4 -40 -15 0 -13 21 -15 125 -15 104 0 125 2 125 15 0 11 -11 15 -40 15 l-40
0 0 185 0 185 40 0 c22 0 40 5 40 10 0 6 -48 10 -125 10 -77 0 -125 -4 -125
-10z"/>
<path d="M6250 570 c0 -5 16 -10 35 -10 l35 0 0 -185 0 -185 -35 0 c-24 0 -35
-5 -35 -15 0 -12 17 -15 90 -15 73 0 90 3 90 15 0 11 -11 15 -40 15 l-40 0 0
182 c0 102 4 178 9 173 4 -6 66 -84 136 -175 147 -190 175 -221 187 -214 4 3
8 95 8 205 l0 199 35 0 c19 0 35 5 35 10 0 6 -37 10 -90 10 -53 0 -90 -4 -90
-10 0 -5 18 -10 40 -10 l40 0 0 -127 c0 -108 -2 -125 -14 -113 -7 8 -57 70
-110 138 l-96 122 -95 0 c-57 0 -95 -4 -95 -10z"/>
</g>
</svg>
