<svg width="49" height="48" xmlns="http://www.w3.org/2000/svg" xmlns:xlink="http://www.w3.org/1999/xlink" xml:space="preserve" overflow="hidden"><g transform="translate(-96 -416)"><g><g><g><g><path d="M121 422C120.607 422 120.256 422.023 119.875 422.047 117.766 422.164 115.703 422.598 113.781 423.359L114.906 426.172C116.523 425.527 118.228 425.146 120.016 425.047 120.326 425.029 120.66 425 121 425 123.824 425 126.496 425.715 128.828 426.969L130.234 424.344C127.48 422.861 124.328 422 121 422ZM111.25 424.578C109.486 425.598 107.863 426.91 106.469 428.469 105.848 429.16 105.303 429.939 104.781 430.719 104.207 431.574 103.709 432.471 103.281 433.391L106 434.609C106.357 433.836 106.779 433.092 107.266 432.359 107.705 431.697 108.197 431.065 108.719 430.484 109.908 429.154 111.268 428.064 112.75 427.203ZM132.953 426.078 131.125 428.469C134.787 431.31 137.184 435.641 137.453 440.609 137.459 440.703 137.523 441.523 137.453 442.906L140.453 443.094C140.529 441.588 140.465 440.598 140.453 440.422 140.137 434.568 137.277 429.43 132.953 426.078ZM121 426.5 121 429.5C127.375 429.5 132.654 434.469 133 440.844 133.012 441.014 133.193 445.443 131.5 450.781L134.359 451.672C136.217 445.818 136.023 441.125 136 440.703 135.572 432.764 128.939 426.5 121 426.5ZM118.234 426.734C115.006 427.326 112.076 428.979 109.844 431.469 109.363 432.002 108.889 432.6 108.484 433.203L108.531 433.203 108.531 433.25C106.779 435.893 105.854 438.951 106 442.109 106 442.139 106 442.174 106 442.203L106 442.953 109 443.047 109 442.062C108.865 439.49 109.574 437 111.016 434.844 111.332 434.363 111.666 433.906 112.047 433.484 113.846 431.475 116.219 430.162 118.797 429.688ZM120.391 431C118.006 431.129 115.785 432.084 114.016 433.672L115.984 435.922C117.256 434.779 118.873 434.094 120.578 434 120.736 433.988 120.853 434 121 434 121.873 434 122.711 434.147 123.484 434.422L124.516 431.609C123.426 431.223 122.213 431 121 431 120.783 431 120.596 430.988 120.391 431ZM126.812 432.734 125.172 435.266C127.076 436.537 128.365 438.617 128.5 441.078L131.5 440.938C131.312 437.516 129.478 434.51 126.812 432.734ZM120.672 435.5C119.09 435.588 117.607 436.332 116.547 437.516 115.486 438.699 114.912 440.24 115 441.828 115 441.822 115.076 443.516 114.391 445.484 113.705 447.453 112.334 449.674 109.375 451.109 109.375 451.109 108.936 451.309 108.438 451.531 107.939 451.754 107.312 452.012 107.172 452.047L107.828 454.953C108.496 454.801 109.141 454.502 109.703 454.25 110.266 453.998 110.688 453.781 110.688 453.781 114.438 451.965 116.33 448.971 117.203 446.469 118.076 443.967 118.012 441.975 118 441.688L118 441.641C117.953 440.832 118.205 440.088 118.75 439.484 119.295 438.875 120.022 438.541 120.812 438.5 120.889 438.494 120.947 438.5 121 438.5L121 435.5C120.877 435.5 120.777 435.494 120.672 435.5ZM112.234 435.688C110.992 437.545 110.389 439.76 110.5 442.016 110.5 442.033 110.5 442.045 110.5 442.062 110.506 442.185 110.635 445.461 107.406 447.031 107.336 447.06 106.217 447.5 104.5 447.5L104.5 450.5C106.85 450.5 108.625 449.797 108.625 449.797L108.672 449.797 108.719 449.75C113.553 447.406 113.506 442.191 113.5 441.922L113.5 441.875C113.412 440.24 113.875 438.711 114.766 437.375ZM123.859 436.203 122.406 438.875C123.297 439.355 123.941 440.228 124 441.312 124.012 441.559 124.428 450.893 117.062 456.828L118.938 459.172C127.516 452.264 127.041 441.875 127 441.172 126.889 439.027 125.647 437.164 123.859 436.203ZM121 440C120.174 440 119.5 440.674 119.5 441.5 119.5 441.535 119.5 441.565 119.5 441.594 119.5 441.594 119.676 444.682 118.141 448.156L120.859 449.375C122.635 445.361 122.512 441.758 122.5 441.5 122.5 441.465 122.5 441.435 122.5 441.406 122.447 440.621 121.797 440 121 440ZM128.453 442.906C128.266 445.953 127.305 452.199 122.875 457.438L125.125 459.359C130.17 453.4 131.242 446.522 131.453 443.094ZM117.344 449.75C116.143 451.772 114.285 453.717 111.344 455.141L112.656 457.859C116.137 456.172 118.463 453.705 119.922 451.25Z" fill="#000000" fill-rule="nonzero" fill-opacity="1"/></g></g></g></g></g></svg>