<svg width="268" height="417" viewBox="0 0 268 417" fill="none" xmlns="http://www.w3.org/2000/svg">
<path fill-rule="evenodd" clip-rule="evenodd" d="M82.0823 72.9788L30.1523 288.009H82.0823V392.689C82.0823 405.779 92.7923 416.489 105.892 416.489C118.982 416.489 129.702 405.779 129.702 392.689V288.009H139.082V392.689C139.082 405.779 149.792 416.489 162.892 416.489C175.982 416.489 186.692 405.779 186.692 392.689V288.009H235.692L186.692 78.5687V66.9088H194.392L194.932 66.7688L231.672 197.469C234.432 207.309 244.652 213.049 254.492 210.289C264.332 207.529 270.072 197.309 267.312 187.469L230.082 55.0387C229.862 54.2587 229.602 53.4988 229.292 52.7788C224.572 33.1388 222.472 21.3988 210.602 12.4588C188.532 -4.16125 81.8923 -4.15125 59.8223 12.4788C47.0023 22.1488 42.3423 36.9188 36.7523 57.7788L37.1223 57.8688L0.692268 187.469C-2.06773 197.309 3.67227 207.529 13.5123 210.289C23.3523 213.049 33.5723 207.309 36.3323 197.469L73.0823 66.7388L73.7623 66.9088H82.0823V72.9788Z" fill="#F576AB"/>
</svg>
