<svg width="197" height="418" viewBox="0 0 197 418" fill="none" xmlns="http://www.w3.org/2000/svg">
<path d="M153.06 67.0863V393.756C153.06 406.886 142.32 417.636 129.19 417.636C116.06 417.636 105.32 406.896 105.32 393.756V201.676H92.3102V393.756C92.3102 406.886 81.5602 417.636 68.4402 417.636C55.3102 417.636 44.5602 406.896 44.5602 393.756V67.0863H36.2202V187.116C36.2202 211.066 0.000167863 211.066 0.000167863 187.116V57.9362C-0.0398321 36.9362 7.07017 22.2063 19.9402 12.5163C42.0602 -4.16375 154.9 -4.17375 177.04 12.4963C189.92 22.1863 197.04 36.9262 197 57.9362V187.116C197 211.066 160.78 211.066 160.78 187.116V67.0863H153.06Z" fill="#5AC1F2"/>
</svg>
