<svg width="48" height="49" xmlns="http://www.w3.org/2000/svg" xmlns:xlink="http://www.w3.org/1999/xlink" xml:space="preserve" overflow="hidden"><g transform="translate(-412 -417)"><g><g><g><g><path d="M436 424 435.438 424.234 426.438 427.844 425.5 428.219 425.5 438.297 417.391 441.812 416.5 442.234 416.5 454.328 417.25 454.797 426.25 459.812 426.953 460.188 427.656 459.859 436 455.688 444.344 459.859 445.047 460.188 445.75 459.812 454.75 454.797 455.5 454.328 455.5 442.234 454.609 441.812 446.5 438.297 446.5 428.219 445.562 427.844 436.562 424.234ZM436 427.281 440.922 429.203 436 431.125 431.078 429.203ZM428.5 431.406 434.5 433.703 434.5 441.016 428.5 438.344ZM443.5 431.406 443.5 438.344 437.5 441.016 437.5 433.703ZM427 440.969 432.438 443.359 427 446.031 421.562 443.312ZM445 440.969 450.438 443.312 445 446.031 439.562 443.359 441.25 442.609ZM419.5 445.609 425.5 448.609 425.5 455.969 419.5 452.594ZM452.5 445.609 452.5 452.594 446.5 455.969 446.5 448.609ZM434.5 445.703 434.5 453.062 428.5 456.062 428.5 448.609ZM437.5 445.703 443.5 448.609 443.5 456.062 437.5 453.062Z" fill="#000000" fill-rule="nonzero" fill-opacity="1"/></g></g></g></g></g></svg>