<svg width="49" height="48" xmlns="http://www.w3.org/2000/svg" xmlns:xlink="http://www.w3.org/1999/xlink" xml:space="preserve" overflow="hidden"><g transform="translate(-333 -256)"><g><g><g><g><path d="M347.5 263.5 347.5 265 341.5 265 341.5 298 374.5 298 374.5 265 368.5 265 368.5 263.5 365.5 263.5 365.5 265 350.5 265 350.5 263.5ZM344.5 268 347.5 268 347.5 269.5 350.5 269.5 350.5 268 365.5 268 365.5 269.5 368.5 269.5 368.5 268 371.5 268 371.5 271 344.5 271ZM344.5 274 371.5 274 371.5 295 344.5 295ZM364.422 277.422 356.5 285.344 353.078 281.922 350.922 284.078 355.422 288.578 356.5 289.609 357.578 288.578 366.578 279.578Z" fill="#000000" fill-rule="nonzero" fill-opacity="1"/></g></g></g></g></g></svg>