<svg width="147" height="110" xmlns="http://www.w3.org/2000/svg" xmlns:xlink="http://www.w3.org/1999/xlink" xml:space="preserve" overflow="hidden"><defs><clipPath id="clip0"><rect x="3712" y="1650" width="147" height="110"/></clipPath><clipPath id="clip1"><rect x="3712" y="1650" width="147" height="110"/></clipPath></defs><g clip-path="url(#clip0)" transform="translate(-3712 -1650)"><g clip-path="url(#clip1)"><path d="M3802.65 1651C3799.78 1651.02 3796.93 1651.16 3793.91 1651.97 3790.9 1652.78 3787.89 1654.07 3784.69 1656.18 3780.73 1653.85 3776.88 1651.93 3773.2 1651.49 3768.63 1650.92 3764.38 1651.22 3759.45 1651.33 3753.6 1651.45 3749.78 1654.44 3743.59 1656.82 3737.4 1659.21 3729.43 1661.51 3718.18 1661.51L3713 1661.51 3713 1711.3 3715.91 1712.76 3725.46 1717.44 3759.45 1755.27 3759.61 1755.43C3763.49 1759.27 3768.73 1760.22 3773.36 1759.96 3778 1759.7 3782.34 1758.34 3785.82 1756.24 3793.47 1751.63 3814.31 1737.17 3814.31 1737.17L3814.79 1736.84 3815.11 1736.52C3817.58 1734.07 3818.82 1731.08 3819.65 1727.95L3839.55 1717.93 3854.44 1712.92 3858 1711.79 3858 1661.51 3852.82 1661.51C3841.59 1661.51 3833.6 1659.08 3827.41 1656.66 3821.22 1654.24 3817.46 1651.29 3811.55 1651.16 3808.4 1651.1 3805.53 1650.98 3802.65 1651ZM3802.82 1661.35C3805.14 1661.33 3807.83 1661.45 3811.23 1661.51 3811.78 1661.53 3816.75 1663.65 3823.69 1666.36 3829.56 1668.66 3837.71 1670.7 3847.64 1671.37L3847.64 1704.35 3835.67 1708.39 3835.34 1708.39 3835.02 1708.55 3819.32 1716.47C3818.45 1714.11 3817.26 1711.93 3815.44 1710.01L3815.11 1709.52 3793.11 1682.53 3789.87 1678.48 3785.82 1681.72 3771.91 1693.03C3767.23 1696.27 3763.45 1695.34 3759.61 1693.52 3758.49 1692.99 3758.56 1692.83 3757.67 1692.23L3781.29 1672.66 3781.62 1672.34C3788.64 1665.39 3792.94 1662.99 3796.67 1661.99 3798.53 1661.49 3800.49 1661.37 3802.82 1661.35ZM3766.73 1661.51C3768.71 1661.47 3770.37 1661.49 3771.91 1661.67 3773.26 1661.83 3774.8 1662.99 3776.11 1663.45 3775.59 1663.93 3775.2 1664.22 3774.66 1664.74 3774.54 1664.86 3774.46 1664.95 3774.33 1665.07L3746.01 1688.51 3741.64 1692.06 3745.53 1696.1C3745.53 1696.1 3749.27 1700.15 3755.08 1702.89 3760.88 1705.64 3769.84 1707.2 3777.89 1701.6L3778.22 1701.28 3788.25 1693.03 3807.35 1716.47 3807.51 1716.8 3807.67 1716.96C3811.09 1720.33 3811.01 1725.65 3807.67 1729.08 3807.63 1729.12 3807.71 1729.2 3807.67 1729.24 3807.63 1729.27 3806.94 1729.67 3806.86 1729.73L3800.06 1720.52 3791.65 1726.66 3798.28 1735.55C3795.59 1737.37 3794.38 1738.32 3791.49 1740.24L3784.53 1730.86 3776.11 1737 3782.75 1745.9C3782.16 1746.26 3780.95 1747.07 3780.48 1747.35 3778.84 1748.34 3775.69 1749.45 3772.88 1749.61 3770.23 1749.75 3768.2 1749.15 3767.21 1748.32L3767.05 1748.16 3732.42 1709.85 3731.77 1709.04 3723.36 1704.83 3723.36 1671.37C3733.25 1670.72 3741.46 1668.76 3747.31 1666.52 3754.23 1663.87 3759.16 1661.69 3759.77 1661.67 3762.42 1661.61 3764.75 1661.55 3766.73 1661.51Z" fill="#000000" fill-rule="evenodd" fill-opacity="1"/></g></g></svg>