<svg width="50" height="49" xmlns="http://www.w3.org/2000/svg" xmlns:xlink="http://www.w3.org/1999/xlink" xml:space="preserve" overflow="hidden"><g transform="translate(-174 -496)"><g><g><g><g><path d="M206.5 503C203.811 503 201.373 503.504 199.469 504.453 197.564 505.402 196 506.949 196 509L196 515C196 515.193 196.064 515.381 196.094 515.562 194.699 515.199 193.152 515 191.5 515 188.811 515 186.373 515.504 184.469 516.453 182.564 517.402 181 518.949 181 521L181 533C181 535.051 182.564 536.598 184.469 537.547 186.373 538.496 188.811 539 191.5 539 194.189 539 196.627 538.496 198.531 537.547 200.436 536.598 202 535.051 202 533L202 532.391C203.377 532.754 204.883 533 206.5 533 209.189 533 211.627 532.496 213.531 531.547 215.436 530.598 217 529.051 217 527L217 509C217 506.949 215.436 505.402 213.531 504.453 211.627 503.504 209.189 503 206.5 503ZM206.5 506C208.785 506 210.818 506.492 212.172 507.172 213.525 507.852 214 508.566 214 509 214 509.434 213.525 510.148 212.172 510.828 210.818 511.508 208.785 512 206.5 512 204.215 512 202.182 511.508 200.828 510.828 199.475 510.148 199 509.434 199 509 199 508.566 199.475 507.852 200.828 507.172 202.182 506.492 204.215 506 206.5 506ZM199 513.266C199.158 513.353 199.305 513.465 199.469 513.547 201.373 514.496 203.811 515 206.5 515 209.189 515 211.627 514.496 213.531 513.547 213.695 513.465 213.842 513.353 214 513.266L214 515C214 515.434 213.525 516.148 212.172 516.828 210.818 517.508 208.785 518 206.5 518 204.215 518 202.182 517.508 200.828 516.828 199.475 516.148 199 515.434 199 515ZM191.5 518C193.785 518 195.818 518.492 197.172 519.172 198.525 519.852 199 520.566 199 521 199 521.434 198.525 522.148 197.172 522.828 195.818 523.508 193.785 524 191.5 524 189.215 524 187.182 523.508 185.828 522.828 184.475 522.148 184 521.434 184 521 184 520.566 184.475 519.852 185.828 519.172 187.182 518.492 189.215 518 191.5 518ZM214 519.266 214 521C214 521.434 213.525 522.148 212.172 522.828 210.818 523.508 208.785 524 206.5 524 204.795 524 203.254 523.719 202 523.297L202 521C202 520.807 201.936 520.619 201.906 520.438 203.301 520.801 204.848 521 206.5 521 209.189 521 211.627 520.496 213.531 519.547 213.695 519.465 213.842 519.353 214 519.266ZM184 525.266C184.158 525.353 184.305 525.465 184.469 525.547 186.373 526.496 188.811 527 191.5 527 194.189 527 196.627 526.496 198.531 525.547 198.695 525.465 198.842 525.353 199 525.266L199 527C199 527.434 198.525 528.148 197.172 528.828 195.818 529.508 193.785 530 191.5 530 189.215 530 187.182 529.508 185.828 528.828 184.475 528.148 184 527.434 184 527ZM214 525.266 214 527C214 527.434 213.525 528.148 212.172 528.828 210.818 529.508 208.785 530 206.5 530 204.795 530 203.254 529.76 202 529.344L202 526.438C203.377 526.801 204.877 527 206.5 527 209.189 527 211.627 526.496 213.531 525.547 213.695 525.465 213.842 525.353 214 525.266ZM184 531.266C184.158 531.353 184.305 531.465 184.469 531.547 186.373 532.496 188.811 533 191.5 533 194.189 533 196.627 532.496 198.531 531.547 198.695 531.465 198.842 531.353 199 531.266L199 533C199 533.434 198.525 534.148 197.172 534.828 195.818 535.508 193.785 536 191.5 536 189.215 536 187.182 535.508 185.828 534.828 184.475 534.148 184 533.434 184 533Z" fill="#000000" fill-rule="nonzero" fill-opacity="1"/></g></g></g></g></g></svg>