<svg width="48" height="50" xmlns="http://www.w3.org/2000/svg" xmlns:xlink="http://www.w3.org/1999/xlink" xml:space="preserve" overflow="hidden"><g transform="translate(-808 -414)"><g><g><g><g><path d="M842.28 424.012C838.246 424.122 835.118 425.219 832.073 426.276 828.817 427.407 825.742 428.474 821.485 428.518 818.64 428.563 815.79 428.072 812.989 427.103L811 426.414 811 452.037 811.999 452.392C814.608 453.314 817.275 453.846 819.93 453.974 820.351 453.993 820.764 454.003 821.169 454.003 825.688 454.003 829.148 452.804 832.504 451.645 836.041 450.421 839.377 449.265 843.93 449.479 846.291 449.592 848.668 450.07 850.999 450.895L853 451.603 853 425.972 852.013 425.611C849.425 424.674 846.752 424.142 844.067 424.026 843.452 423.999 842.857 423.996 842.28 424.012ZM842.362 426.991C842.871 426.975 843.394 426.976 843.935 426.997 844.497 427.021 845.058 427.072 845.617 427.138 846.017 428.778 847.486 430 849.25 430 849.506 430 849.757 429.972 850 429.924L850 443.576C849.757 443.528 849.506 443.5 849.25 443.5 847.396 443.5 845.868 444.847 845.565 446.614 845.066 446.562 844.568 446.527 844.07 446.503 838.948 446.278 835.171 447.566 831.52 448.832 827.978 450.059 824.623 451.219 820.073 451.003 819.51 450.976 818.945 450.922 818.38 450.853 817.976 449.218 816.511 448 814.75 448 814.494 448 814.243 448.028 814 448.076L814 434.424C814.243 434.472 814.494 434.5 814.75 434.5 816.617 434.5 818.151 433.133 818.438 431.348 819.466 431.455 820.494 431.517 821.518 431.5 826.265 431.452 829.717 430.25 833.058 429.089 835.999 428.065 838.804 427.101 842.362 426.991ZM832 433C832 435.159 831.159 436 829 436L829 439C830.164 439 831.155 438.773 832 438.382L832 445 835 445 835 433 832 433ZM843.25 434.5C842.007 434.5 841 435.507 841 436.75 841 437.993 842.007 439 843.25 439 844.493 439 845.5 437.993 845.5 436.75 845.5 435.507 844.493 434.5 843.25 434.5ZM820.75 439C819.507 439 818.5 440.007 818.5 441.25 818.5 442.493 819.507 443.5 820.75 443.5 821.993 443.5 823 442.493 823 441.25 823 440.007 821.993 439 820.75 439Z" fill="#000000" fill-rule="nonzero" fill-opacity="1"/></g></g></g></g></g></svg>