<svg width="147" height="133" xmlns="http://www.w3.org/2000/svg" xmlns:xlink="http://www.w3.org/1999/xlink" xml:space="preserve" overflow="hidden"><g transform="translate(-3272 -1792)"><g><path d="M3273 1794 3273 1876.25 3293.71 1876.25 3293.71 1902.44 3302.13 1895.69 3326.57 1876.25 3376.57 1876.25 3376.57 1794ZM3283.36 1804.28 3366.21 1804.28 3366.21 1865.97 3323.01 1865.97 3321.55 1867.09 3304.07 1880.91 3304.07 1865.97 3283.36 1865.97ZM3386.93 1814.56 3386.93 1824.84 3407.64 1824.84 3407.64 1886.53 3386.93 1886.53 3386.93 1901.47 3367.99 1886.53 3329.16 1886.53 3316.21 1896.81 3364.43 1896.81 3397.29 1923 3397.29 1896.81 3418 1896.81 3418 1814.56Z" fill="#000000" fill-rule="evenodd" fill-opacity="1"/></g></g></svg>