<svg width="49" height="49" xmlns="http://www.w3.org/2000/svg" xmlns:xlink="http://www.w3.org/1999/xlink" xml:space="preserve" overflow="hidden"><g transform="translate(-728 -496)"><g><g><g><g><path d="M754.5 503 754.5 504.784C754.282 504.863 754.071 504.959 753.87 505.068 753.468 505.287 753.104 505.563 752.786 505.886 752.469 506.209 752.198 506.577 751.989 506.981 751.676 507.588 751.5 508.274 751.5 509 751.5 509.307 751.533 509.608 751.594 509.899 751.715 510.482 751.951 511.026 752.276 511.505 752.439 511.745 752.623 511.968 752.827 512.173 753.031 512.377 753.255 512.561 753.495 512.724 754.214 513.212 755.078 513.5 756 513.5 756.214 513.5 756.414 513.541 756.595 513.614 756.776 513.688 756.935 513.797 757.069 513.931 757.203 514.065 757.312 514.224 757.386 514.405 757.459 514.586 757.5 514.786 757.5 515 757.5 515.641 757.137 516.164 756.595 516.386 756.414 516.459 756.214 516.5 756 516.5 755.786 516.5 755.586 516.459 755.405 516.386 755.224 516.312 755.065 516.203 754.931 516.069 754.797 515.935 754.688 515.776 754.614 515.595 754.541 515.414 754.5 515.214 754.5 515L751.5 515C751.5 515.242 751.521 515.48 751.559 515.712 751.596 515.943 751.65 516.167 751.723 516.386 751.941 517.041 752.31 517.63 752.786 518.114 752.945 518.276 753.114 518.426 753.296 518.562 753.477 518.699 753.669 518.822 753.87 518.932 754.071 519.041 754.282 519.137 754.5 519.216L754.5 521 757.5 521 757.5 519.216C759.24 518.586 760.5 516.935 760.5 515 760.5 512.847 758.938 511.018 756.899 510.594 756.608 510.533 756.307 510.5 756 510.5 755.786 510.5 755.586 510.46 755.405 510.386 755.224 510.312 755.065 510.203 754.931 510.069 754.797 509.935 754.688 509.775 754.614 509.595 754.541 509.414 754.5 509.214 754.5 509 754.5 508.786 754.541 508.586 754.614 508.405 754.688 508.225 754.797 508.065 754.931 507.931 755.199 507.663 755.573 507.5 756 507.5 756.855 507.5 757.5 508.145 757.5 509L760.5 509C760.5 508.758 760.479 508.52 760.441 508.288 760.404 508.057 760.35 507.833 760.277 507.614 759.841 506.304 758.805 505.257 757.5 504.784L757.5 503 754.5 503ZM744.773 524C743.227 524.006 742.049 524.398 742.049 524.398L742.02 524.41 733.512 527.674 736.488 536.029 743.883 533.193 754.588 539.088 773.074 531.43 771.926 528.664 754.77 535.766 744.117 529.9 738.281 532.133 737.32 529.426 743.016 527.24C743.029 527.234 743.729 527 744.773 527 745.828 527 747.057 527.234 748.107 528.184L748.128 528.195 748.134 528.201C749.68 529.544 750.847 530.482 752.47 530.99 754.093 531.5 755.934 531.559 759.009 531.547L758.994 528.547C755.976 528.559 754.4 528.452 753.369 528.125 752.337 527.808 751.605 527.24 750.117 525.951L750.1 525.94C748.364 524.381 746.302 523.994 744.773 524Z" fill="#000000" fill-rule="nonzero" fill-opacity="1"/></g></g></g></g></g></svg>