<svg width="49" height="49" xmlns="http://www.w3.org/2000/svg" xmlns:xlink="http://www.w3.org/1999/xlink" xml:space="preserve" overflow="hidden"><g transform="translate(-493 -256)"><g><g><g><g><path d="M518 264.5C516.06 264.5 514.408 265.766 513.781 267.5L503 267.5 503 270.5 505.109 270.5 504.688 271.25 498.688 281.75 498.5 282.125 498.5 282.5C498.5 286.625 501.875 290 506 290 510.125 290 513.5 286.625 513.5 282.5L513.5 282.125 513.312 281.75 507.312 271.25 506.891 270.5 513.781 270.5C514.238 271.766 515.234 272.762 516.5 273.219L516.5 293 510.5 293 510.5 296 525.5 296 525.5 293 519.5 293 519.5 273.219C520.76 272.762 521.762 271.76 522.219 270.5L529.109 270.5 528.688 271.25 522.688 281.75 522.5 282.125 522.5 282.5C522.5 286.625 525.875 290 530 290 534.125 290 537.5 286.625 537.5 282.5L537.5 282.125 537.312 281.75 531.312 271.25 530.891 270.5 533 270.5 533 267.5 522.219 267.5C521.592 265.766 519.94 264.5 518 264.5ZM518 267.5C518.844 267.5 519.5 268.156 519.5 269 519.5 269.844 518.844 270.5 518 270.5 517.156 270.5 516.5 269.844 516.5 269 516.5 268.156 517.156 267.5 518 267.5ZM506 275.047 509.422 281 502.578 281ZM530 275.047 533.422 281 526.578 281ZM501.875 284 510.125 284C509.522 285.74 507.957 287 506 287 504.043 287 502.479 285.74 501.875 284ZM525.875 284 534.125 284C533.522 285.74 531.957 287 530 287 528.043 287 526.478 285.74 525.875 284Z" fill="#000000" fill-rule="nonzero" fill-opacity="1"/></g></g></g></g></g></svg>