<svg width="48" height="49" xmlns="http://www.w3.org/2000/svg" xmlns:xlink="http://www.w3.org/1999/xlink" xml:space="preserve" overflow="hidden"><g transform="translate(-1044 -256)"><g><g><g><g><path d="M1057.5 267.5C1052.55 267.5 1048.5 271.549 1048.5 276.5 1048.5 279.477 1049.96 282.125 1052.2 283.766 1048.25 285.728 1045.5 289.795 1045.5 294.5L1048.5 294.5C1048.5 289.514 1052.51 285.5 1057.5 285.5 1062.49 285.5 1066.5 289.514 1066.5 294.5L1069.5 294.5C1069.5 289.514 1073.51 285.5 1078.5 285.5 1083.49 285.5 1087.5 289.514 1087.5 294.5L1090.5 294.5C1090.5 289.795 1087.75 285.728 1083.8 283.766 1086.04 282.125 1087.5 279.477 1087.5 276.5 1087.5 271.549 1083.45 267.5 1078.5 267.5 1073.55 267.5 1069.5 271.549 1069.5 276.5 1069.5 279.477 1070.96 282.125 1073.2 283.766 1071.02 284.85 1069.18 286.56 1068 288.688 1066.82 286.56 1064.98 284.85 1062.8 283.766 1065.04 282.125 1066.5 279.477 1066.5 276.5 1066.5 271.549 1062.45 267.5 1057.5 267.5ZM1057.5 270.5C1060.83 270.5 1063.5 273.166 1063.5 276.5 1063.5 279.834 1060.83 282.5 1057.5 282.5 1054.17 282.5 1051.5 279.834 1051.5 276.5 1051.5 273.166 1054.17 270.5 1057.5 270.5ZM1078.5 270.5C1081.83 270.5 1084.5 273.166 1084.5 276.5 1084.5 279.834 1081.83 282.5 1078.5 282.5 1075.17 282.5 1072.5 279.834 1072.5 276.5 1072.5 273.166 1075.17 270.5 1078.5 270.5Z" fill="#000000" fill-rule="nonzero" fill-opacity="1"/></g></g></g></g></g></svg>