<svg width="1278" height="1474" xmlns="http://www.w3.org/2000/svg" xmlns:xlink="http://www.w3.org/1999/xlink" xml:space="preserve" overflow="hidden"><defs><clipPath id="clip0"><rect x="2057" y="613" width="1278" height="1474"/></clipPath></defs><g clip-path="url(#clip0)" transform="translate(-2057 -613)"><path d="M2057 1509.94C2696 2087 2696 2087 2696 2087 3335 1509.37 3335 1509.37 3335 1509.37 3057.45 1231.48 3057.45 1231.48 3057.45 1231.48 2967.8 1326.99 2967.8 1326.99 2967.8 1326.99 2967.8 613 2967.8 613 2967.8 613 2826.44 613 2565.56 613 2424.2 613 2424.2 1318.93 2424.2 1318.93 2424.2 1318.93 2339.72 1225.15 2339.72 1225.15 2339.72 1225.15 2057 1509.94 2057 1509.94 2057 1509.94Z" fill="#83C15B" fill-rule="evenodd"/></g></svg>