<?xml version="1.0" standalone="no"?>
<!DOCTYPE svg PUBLIC "-//W3C//DTD SVG 20010904//EN"
 "http://www.w3.org/TR/2001/REC-SVG-20010904/DTD/svg10.dtd">
<svg version="1.0" xmlns="http://www.w3.org/2000/svg"
 width="500.000000pt" height="500.000000pt" viewBox="0 0 500.000000 500.000000"
 preserveAspectRatio="xMidYMid meet">

<g transform="translate(0.000000,500.000000) scale(0.100000,-0.100000)"
fill="#000000" stroke="none">
<path d="M2250 4979 c-544 -59 -1070 -298 -1439 -654 -426 -411 -692 -918
-777 -1480 -25 -166 -26 -523 -1 -685 156 -1019 885 -1825 1877 -2075 243 -61
522 -86 763 -67 1046 80 1910 770 2212 1766 71 236 112 564 102 812 -47 1097
-785 2019 -1848 2308 -193 53 -378 78 -599 81 -113 2 -243 -1 -290 -6z m-445
-1134 c55 -57 70 -119 70 -280 0 -161 -15 -223 -70 -280 -66 -70 -150 -32
-192 87 -26 76 -26 310 0 386 26 75 74 122 122 122 30 0 44 -7 70 -35z m1560
1 c51 -55 70 -129 70 -281 0 -152 -19 -226 -70 -281 -25 -26 -41 -34 -67 -34
-49 0 -80 28 -114 102 -28 60 -29 69 -29 208 0 120 3 154 20 199 44 119 124
156 190 87z m621 -1635 c61 -28 84 -63 84 -127 0 -73 -26 -136 -105 -255 -256
-384 -698 -648 -1194 -714 -486 -65 -987 71 -1360 369 -199 159 -431 473 -431
582 0 76 79 138 167 131 66 -5 78 -15 146 -130 79 -133 140 -212 231 -301 188
-182 421 -304 696 -363 123 -26 458 -26 585 1 287 60 542 199 731 397 81 86
131 155 199 274 64 111 81 134 110 146 34 14 98 9 141 -10z"/>
</g>
</svg>
