<svg width="49" height="49" xmlns="http://www.w3.org/2000/svg" xmlns:xlink="http://www.w3.org/1999/xlink" xml:space="preserve" overflow="hidden"><g transform="translate(-569 -256)"><g><g><g><g><path d="M583.5 263C580.201 263 577.5 265.701 577.5 269 577.5 270.67 578.215 272.176 579.328 273.266 577.33 274.619 576 276.928 576 279.5L576 287.938 579 289.438 579 299 588 299 588 289.438 591 287.938 591 279.5C591 276.928 589.67 274.619 587.672 273.266 588.785 272.176 589.5 270.67 589.5 269 589.5 265.701 586.799 263 583.5 263ZM603 263C599.701 263 597 265.701 597 269 597 270.729 597.785 272.264 598.969 273.359 597.609 274.379 596.619 275.897 596.297 277.719 596.297 277.736 596.297 277.748 596.297 277.766L594.047 289.719 593.672 291.5 598.5 291.5 598.5 299 607.5 299 607.5 291.5 612.328 291.5 611.953 289.719 609.703 277.766C609.703 277.748 609.703 277.736 609.703 277.719 609.381 275.897 608.391 274.379 607.031 273.359 608.215 272.264 609 270.729 609 269 609 265.701 606.299 263 603 263ZM583.5 266C585.176 266 586.5 267.324 586.5 269 586.5 270.676 585.176 272 583.5 272 581.824 272 580.5 270.676 580.5 269 580.5 267.324 581.824 266 583.5 266ZM603 266C604.676 266 606 267.324 606 269 606 270.676 604.676 272 603 272 601.324 272 600 270.676 600 269 600 267.324 601.324 266 603 266ZM583.5 275C585.984 275 588 277.016 588 279.5L588 286.062 585 287.562 585 296 582 296 582 287.562 579 286.062 579 279.5C579 277.016 581.016 275 583.5 275ZM603 275C604.846 275 606.416 276.225 606.75 278.234L606.75 278.281 606.797 278.281 608.719 288.5 604.5 288.5 604.5 296 601.5 296 601.5 288.5 597.281 288.5 599.203 278.281 599.25 278.281 599.25 278.234C599.584 276.225 601.154 275 603 275Z" fill="#000000" fill-rule="nonzero" fill-opacity="1"/></g></g></g></g></g></svg>