<svg width="49" height="48" xmlns="http://www.w3.org/2000/svg" xmlns:xlink="http://www.w3.org/1999/xlink" xml:space="preserve" overflow="hidden"><g transform="translate(-333 -496)"><g><g><g><g><path d="M373 506.5 372.549 506.049C370 503.201 366.25 502.299 366.25 502.299 361.75 500.951 354.701 503.951 348.402 510.098 343.152 515.049 340 521.049 340 525.549 340 526.152 340.152 526.75 340.152 527.348 340.451 530.348 342.402 533.5 344.049 535 346.152 537.098 348.848 538.152 351.848 538.152 356.799 538.152 362.652 535.299 368.049 530.201 376.451 521.951 378.549 512.201 373 506.5ZM349 528.549C349 526.598 351.098 522.549 355.598 518.049 359.951 513.701 364.451 512.5 366.549 512.049 365.5 514.902 363.25 518.348 359.951 521.652 356.799 524.652 353.201 527.049 350.049 528.25 349.75 528.402 349.299 528.402 349 528.549ZM350.5 512.201C355.451 507.25 360.701 504.848 364 504.848 365.049 504.848 365.951 505.152 366.549 505.75 367.152 506.348 367.451 507.549 367.299 508.902 365.5 509.049 359.348 510.098 353.5 515.951 349.75 519.701 345.848 525.098 346.152 528.848 345.25 528.848 344.348 528.549 343.902 528.098 343.598 527.799 343.299 527.348 343.152 526.75 343.152 526.75 343 526 343 525.549 343.152 521.799 346 516.549 350.5 512.201ZM365.951 527.951C358.75 535.152 350.5 537.098 346.152 532.902 345.848 532.598 345.549 532.299 345.25 531.848 345.549 532 346 532 346.451 532 347.799 532 349.451 531.701 351.098 531.098 354.701 529.75 358.598 527.201 362.049 523.75 367.299 518.5 370.299 512.5 370.299 508.152L370.451 508.299 370.902 508.598C375.098 512.951 373 521.049 365.951 527.951Z" fill="#000000" fill-rule="nonzero" fill-opacity="1"/></g></g></g></g></g></svg>