<svg width="49" height="49" xmlns="http://www.w3.org/2000/svg" xmlns:xlink="http://www.w3.org/1999/xlink" xml:space="preserve" overflow="hidden"><g transform="translate(-569 -496)"><g><g><g><g><path d="M579 501.5 579 540.5 609 540.5 609 511.399 608.549 510.951 599.549 501.951 599.101 501.5 579 501.5ZM582 504.5 597 504.5 597 513.5 606 513.5 606 537.5 582 537.5 582 504.5ZM600 506.601 603.899 510.5 600 510.5 600 506.601ZM585 516.5 585 519.5 603 519.5 603 516.5 585 516.5ZM585 524 585 527 595.5 527 595.5 524 585 524ZM598.5 524 598.5 527 603 527 603 524 598.5 524ZM585 530 585 533 595.5 533 595.5 530 585 530ZM598.5 530 598.5 533 603 533 603 530 598.5 530Z" fill="#000000" fill-rule="nonzero" fill-opacity="1"/></g></g></g></g></g></svg>