<svg width="50" height="49" xmlns="http://www.w3.org/2000/svg" xmlns:xlink="http://www.w3.org/1999/xlink" xml:space="preserve" overflow="hidden"><g transform="translate(-810 -256)"><g><g><g><g><path d="M853 261.547 850.609 263.281C850.609 263.281 847.627 265.496 843.344 267.688 839.06 269.879 833.482 272 828.578 272L814 272 814 285.688 814.047 285.922 817.047 296.422 817.375 297.5 826.469 297.5 825.953 295.578 823.516 287 828.578 287C833.418 287 838.996 289.162 843.297 291.359 847.598 293.557 850.609 295.719 850.609 295.719L853 297.453 853 283.719C854.734 283.092 856 281.44 856 279.5 856 277.56 854.734 275.908 853 275.281ZM850 267.125 850 291.828C848.758 290.99 847.773 290.228 844.656 288.641 840.25 286.391 834.56 284.111 829 284L829 275C834.613 274.889 840.309 272.562 844.703 270.312 847.815 268.719 848.77 267.963 850 267.125ZM817 275 826 275 826 284 817 284ZM817.516 287 820.375 287 822.484 294.5 819.625 294.5Z" fill="#000000" fill-rule="nonzero" fill-opacity="1"/></g></g></g></g></g></svg>