<svg width="48" height="49" xmlns="http://www.w3.org/2000/svg" xmlns:xlink="http://www.w3.org/1999/xlink" xml:space="preserve" overflow="hidden"><g transform="translate(-808 -417)"><g><g><g><g><path d="M832 424C827.049 424 823 428.049 823 433 823 434.512 823.369 435.918 824.031 437.172 821.295 436.504 817.961 436 814 436L812.078 436 817.328 457 818.5 457C823.609 457 826.75 457.732 828.578 458.406 829.492 458.746 830.072 459.08 830.406 459.297 830.74 459.514 830.781 459.531 830.781 459.531L831.203 460 832.797 460 833.219 459.531C833.219 459.531 833.26 459.514 833.594 459.297 833.928 459.08 834.508 458.746 835.422 458.406 837.25 457.732 840.391 457 845.5 457L846.672 457 851.922 436 850 436C846.057 436 842.728 436.475 840.016 437.125 840.66 435.889 841 434.488 841 433 841 428.049 836.951 424 832 424ZM832 427C835.334 427 838 429.666 838 433 838 436.334 835.334 439 832 439 828.666 439 826 436.334 826 433 826 429.666 828.666 427 832 427ZM815.969 439.188C820.633 439.416 824.441 440.225 826.938 441.156 828.947 441.906 829.938 442.486 830.5 442.844L830.5 455.969C830.23 455.846 829.984 455.717 829.656 455.594 827.629 454.844 824.301 454.211 819.672 454.094ZM848.031 439.188 844.328 454.094C839.699 454.211 836.371 454.844 834.344 455.594 834.016 455.717 833.77 455.846 833.5 455.969L833.5 442.844C834.062 442.48 835.047 441.895 837.016 441.156 839.494 440.225 843.309 439.416 848.031 439.188Z" fill="#000000" fill-rule="nonzero" fill-opacity="1"/></g></g></g></g></g></svg>