<svg width="129" height="129" xmlns="http://www.w3.org/2000/svg" xmlns:xlink="http://www.w3.org/1999/xlink" xml:space="preserve" overflow="hidden"><g transform="translate(-2873 -1938)"><g><path d="M2937.5 1943C2903.59 1943 2876 1970.81 2876 2005 2876 2039.19 2903.59 2067 2937.5 2067 2971.41 2067 2999 2039.19 2999 2005 2999 1970.81 2971.41 1943 2937.5 1943ZM2937.5 1953.33C2965.87 1953.33 2988.75 1976.4 2988.75 2005 2988.75 2033.6 2965.87 2056.67 2937.5 2056.67 2909.13 2056.67 2886.25 2033.6 2886.25 2005 2886.25 1976.4 2909.13 1953.33 2937.5 1953.33ZM2914.44 1984.33C2910.19 1984.33 2906.75 1987.8 2906.75 1992.08 2906.75 1996.36 2910.19 1999.83 2914.44 1999.83 2918.68 1999.83 2922.13 1996.36 2922.13 1992.08 2922.13 1987.8 2918.68 1984.33 2914.44 1984.33ZM2947.75 1989.5 2947.75 1999.83 2973.38 1999.83 2973.38 1989.5ZM2962.97 2010.33C2962.97 2019.03 2959.5 2025.06 2954.48 2029.38 2949.45 2033.7 2942.81 2036 2937.5 2036 2926.63 2036 2919.24 2031.56 2913.48 2025.83L2906.27 2033.26C2913.42 2040.34 2923.77 2046.33 2937.5 2046.33 2945.47 2046.33 2954.22 2043.31 2961.2 2037.29 2968.19 2031.28 2973.22 2021.99 2973.22 2010.33Z" fill="#000000" fill-rule="evenodd" fill-opacity="1"/></g></g></svg>