<svg width="49" height="49" xmlns="http://www.w3.org/2000/svg" xmlns:xlink="http://www.w3.org/1999/xlink" xml:space="preserve" overflow="hidden"><g transform="translate(-964 -497)"><g><g><g><g><path d="M993.5 502.5C985.232 502.5 978.5 509.232 978.5 517.5 978.5 521.092 979.76 524.385 981.875 526.969L969.922 538.922 972.078 541.078 984.031 529.125C986.615 531.24 989.908 532.5 993.5 532.5 1001.77 532.5 1008.5 525.768 1008.5 517.5 1008.5 509.232 1001.77 502.5 993.5 502.5ZM993.5 505.5C1000.14 505.5 1005.5 510.855 1005.5 517.5 1005.5 524.145 1000.14 529.5 993.5 529.5 986.855 529.5 981.5 524.145 981.5 517.5 981.5 510.855 986.855 505.5 993.5 505.5Z" fill="#000000" fill-rule="nonzero" fill-opacity="1"/></g></g></g></g></g></svg>