<svg width="125" height="139" xmlns="http://www.w3.org/2000/svg" xmlns:xlink="http://www.w3.org/1999/xlink" xml:space="preserve" overflow="hidden"><defs><clipPath id="clip0"><rect x="2527" y="1722" width="125" height="139"/></clipPath></defs><g clip-path="url(#clip0)" transform="translate(-2527 -1722)"><path d="M2605.36 1722C2601.4 1722.02 2597.55 1723.55 2594.7 1726.68 2594.66 1726.72 2594.74 1726.8 2594.7 1726.84 2588.34 1733.23 2585.87 1739.58 2583.71 1745.22 2582.78 1747.66 2581.85 1749.96 2580.64 1752.32 2578.26 1749.57 2574.82 1747.8 2570.95 1747.8 2563.88 1747.8 2558.02 1753.65 2558.02 1760.7 2558.02 1767.76 2563.88 1773.6 2570.95 1773.6 2574.78 1773.6 2578.1 1771.79 2580.48 1769.09L2580.8 1769.41 2533.62 1816.33 2532.17 1817.94 2532.17 1838.42 2527 1843.74 2534.27 1851 2539.6 1845.84 2560.12 1845.84 2561.74 1844.39 2647.37 1758.77 2647.53 1758.6C2653.49 1752.66 2653.49 1742.94 2647.53 1737L2641.23 1730.71C2638.24 1727.72 2634.36 1726.19 2630.41 1726.19 2626.71 1726.19 2623.11 1727.62 2620.23 1730.22L2616.51 1726.68C2613.46 1723.63 2609.38 1721.98 2605.36 1722ZM2605.52 1732.32C2606.8 1732.34 2608.17 1732.86 2609.24 1733.93L2612.79 1737.48 2581.13 1768.92C2588.13 1761.51 2591.22 1754.61 2593.41 1748.93 2595.63 1743.12 2597.02 1738.87 2601.97 1733.93L2602.29 1733.61C2603.06 1732.74 2604.25 1732.3 2605.52 1732.32ZM2630.41 1736.35C2631.62 1736.35 2632.81 1736.81 2633.96 1737.96L2640.26 1744.25C2642.56 1746.55 2642.56 1749.05 2640.26 1751.35L2635.58 1755.86 2622.33 1742.64 2626.37 1738.61 2626.85 1737.96C2628 1736.81 2629.19 1736.35 2630.41 1736.35ZM2614.9 1750.06 2628.14 1763.28 2589.04 1802.3 2575.79 1789.08ZM2570.95 1758.12C2572.44 1758.12 2573.53 1759.21 2573.53 1760.7 2573.53 1762.19 2572.44 1763.28 2570.95 1763.28 2569.45 1763.28 2568.36 1762.19 2568.36 1760.7 2568.36 1759.21 2569.45 1758.12 2570.95 1758.12ZM2568.36 1796.5 2581.61 1809.72 2555.76 1835.52 2542.51 1835.52 2542.51 1822.3Z" fill-rule="evenodd"/></g></svg>