<svg width="49" height="49" xmlns="http://www.w3.org/2000/svg" xmlns:xlink="http://www.w3.org/1999/xlink" xml:space="preserve" overflow="hidden"><g transform="translate(-96 -336)"><g><g><g><g><path d="M121 341.5C120.062 341.5 119.131 341.816 118.328 342.391L115.844 344.125 112.984 344.5 112.938 344.5 112.891 344.547C110.98 344.975 109.475 346.48 109.047 348.391L109 348.438 109 348.484 108.625 351.391 106.891 353.641 106.844 353.688 106.844 353.734C105.795 355.41 105.748 357.572 106.891 359.172L108.672 361.656 109.141 364.234 104.312 371.594 102.766 373.891 109.938 373.891 111.672 377.922 112.75 380.5 114.297 378.156 119.031 371.031C120.303 371.553 121.738 371.6 122.969 371.031L127.703 378.156 129.25 380.5 130.328 377.922 132.062 373.891 139.234 373.891 137.688 371.594 133 364.469 133.375 361.656 135.109 359.172 135.156 359.125 135.156 359.078C136.205 357.402 136.252 355.287 135.109 353.688L133.375 351.203 132.812 348.391 132.859 348.391C132.853 348.355 132.818 348.332 132.812 348.297 132.543 346.334 130.99 344.74 129.016 344.5L128.969 344.5 126.156 344.125 123.672 342.391C122.869 341.816 121.938 341.5 121 341.5ZM121 344.547C121.346 344.547 121.686 344.652 121.938 344.828L124.609 346.75 124.938 346.984 125.312 347.031 128.594 347.5 128.641 347.5C129.314 347.576 129.783 348.045 129.859 348.719L129.859 348.812 130.469 352.141 130.516 352.469 130.75 352.75 132.672 355.422C133.029 355.92 133.076 356.764 132.625 357.484L130.516 360.438 130.469 360.812 130 364.094 130 364.141C129.971 364.387 129.889 364.615 129.766 364.797L129.672 364.844 129.672 364.891C129.455 365.148 129.156 365.318 128.781 365.359L128.688 365.359 125.266 365.969 124.891 366.016 124.609 366.25 121.938 368.172C121.439 368.529 120.549 368.576 119.828 368.125L117.391 366.25 117.109 366.016 116.688 365.969 113.406 365.5 113.359 365.5C112.897 365.447 112.539 365.207 112.328 364.844 112.234 364.68 112.164 364.486 112.141 364.281L112.141 364.188 111.531 360.766 111.484 360.391 111.25 360.109 109.328 357.438C108.971 356.94 108.924 356.049 109.375 355.328L111.25 352.891 111.484 352.609 111.531 352.188 111.953 349.047C111.959 349.023 111.994 349.023 112 349 112.188 348.268 112.768 347.688 113.5 347.5 113.523 347.494 113.523 347.459 113.547 347.453L116.688 347.031 117.062 346.984 117.391 346.75 120.062 344.828C120.314 344.652 120.654 344.547 121 344.547ZM131.359 367.375 133.656 370.891 130.047 370.891 129.672 371.828 128.641 374.219 125.453 369.344 126.156 368.828 129.109 368.312 129.109 368.359C129.145 368.353 129.168 368.318 129.203 368.312 130.012 368.201 130.744 367.861 131.359 367.375ZM110.641 367.422C111.279 367.996 112.094 368.395 112.984 368.5 113.002 368.5 113.014 368.5 113.031 368.5L115.891 368.875 116.547 369.391 113.359 374.219 112.328 371.828 111.953 370.891 108.344 370.891Z" fill="#000000" fill-rule="nonzero" fill-opacity="1"/></g></g></g></g></g></svg>