<svg width="146" height="106" xmlns="http://www.w3.org/2000/svg" xmlns:xlink="http://www.w3.org/1999/xlink" xml:space="preserve" overflow="hidden"><g transform="translate(-3694 -1081)"><g><path d="M3710.54 1082C3702.02 1082 3695 1088.98 3695 1097.45L3695 1169.55C3695 1178.02 3702.02 1185 3710.54 1185L3824.46 1185C3832.98 1185 3840 1178.02 3840 1169.55L3840 1097.45C3840 1088.98 3832.98 1082 3824.46 1082ZM3710.54 1092.3 3824.46 1092.3C3827.4 1092.3 3829.64 1094.53 3829.64 1097.45L3829.64 1169.55C3829.64 1172.47 3827.4 1174.7 3824.46 1174.7L3710.54 1174.7C3707.6 1174.7 3705.36 1172.47 3705.36 1169.55L3705.36 1097.45C3705.36 1094.53 3707.6 1092.3 3710.54 1092.3ZM3741.61 1102.6C3730.22 1102.6 3720.89 1111.87 3720.89 1123.2 3720.89 1128.93 3723.36 1134.1 3727.2 1137.85 3720.31 1142.49 3715.71 1150.4 3715.71 1159.25L3726.07 1159.25C3726.07 1150.66 3732.97 1143.8 3741.61 1143.8 3750.25 1143.8 3757.14 1150.66 3757.14 1159.25L3767.5 1159.25C3767.5 1150.4 3762.91 1142.49 3756.01 1137.85 3759.85 1134.1 3762.32 1128.93 3762.32 1123.2 3762.32 1111.87 3753 1102.6 3741.61 1102.6ZM3777.86 1107.75 3777.86 1118.05 3819.29 1118.05 3819.29 1107.75ZM3741.61 1112.9C3747.39 1112.9 3751.96 1117.45 3751.96 1123.2 3751.96 1128.95 3747.39 1133.5 3741.61 1133.5 3735.82 1133.5 3731.25 1128.95 3731.25 1123.2 3731.25 1117.45 3735.82 1112.9 3741.61 1112.9ZM3777.86 1128.35 3777.86 1138.65 3819.29 1138.65 3819.29 1128.35ZM3777.86 1148.95 3777.86 1159.25 3803.75 1159.25 3803.75 1148.95Z" fill="#000000" fill-rule="evenodd" fill-opacity="1"/></g></g></svg>