<?xml version="1.0" standalone="no"?>
<!DOCTYPE svg PUBLIC "-//W3C//DTD SVG 20010904//EN"
 "http://www.w3.org/TR/2001/REC-SVG-20010904/DTD/svg10.dtd">
<svg version="1.0" xmlns="http://www.w3.org/2000/svg"
 width="500.000000pt" height="500.000000pt" viewBox="0 0 500.000000 500.000000"
 preserveAspectRatio="xMidYMid meet">

<g transform="translate(0.000000,500.000000) scale(0.100000,-0.100000)"
fill="#000000" stroke="none">
<path d="M2240 4984 c-588 -72 -1105 -319 -1505 -719 -364 -364 -602 -826
-697 -1352 -20 -114 -23 -159 -23 -413 0 -254 3 -299 23 -413 95 -526 333
-988 697 -1352 364 -364 826 -602 1352 -697 114 -20 159 -23 413 -23 254 0
299 3 413 23 526 95 988 333 1352 697 364 364 602 826 697 1352 20 114 23 159
23 413 0 254 -3 299 -23 413 -95 526 -333 988 -697 1352 -363 362 -827 602
-1346 696 -104 18 -167 22 -384 24 -143 2 -276 1 -295 -1z m-452 -1120 c55
-38 92 -158 92 -299 0 -189 -58 -315 -145 -315 -87 0 -145 126 -145 315 0 189
58 315 145 315 17 0 41 -7 53 -16z m1565 -8 c35 -33 56 -77 73 -154 18 -86 18
-161 0 -255 -24 -122 -74 -197 -134 -197 -34 0 -86 57 -113 127 -20 50 -23 76
-23 188 0 113 3 138 24 190 44 112 115 154 173 101z m-488 -1510 c374 -68 708
-244 957 -504 106 -111 227 -285 254 -364 22 -68 15 -150 -16 -183 -52 -55
-174 -71 -221 -29 -11 10 -43 58 -71 108 -181 321 -419 523 -754 639 -177 62
-244 72 -479 72 -166 0 -228 -4 -295 -18 -275 -59 -512 -183 -698 -365 -89
-88 -150 -167 -229 -299 -68 -115 -80 -125 -146 -130 -86 -7 -151 40 -163 119
-19 113 233 449 468 624 263 196 516 295 893 348 70 10 414 -3 500 -18z"/>
</g>
</svg>
