<svg width="98" height="97" xmlns="http://www.w3.org/2000/svg" xmlns:xlink="http://www.w3.org/1999/xlink" xml:space="preserve" overflow="hidden"><g transform="translate(-402 -157)"><g><g><g><g><path d="M442 210.452 447.3 215.38 454.743 208.144 459.4 203.5 464.713 208.188 482.732 190.162C482.736 190.158 482.742 190.158 482.746 190.162 482.748 190.164 482.749 190.166 482.749 190.169L482.749 198.733 484.749 198.733 484.749 186.733 472.776 186.733 472.776 188.733 481.307 188.733C481.312 188.732 481.317 188.737 481.318 188.742 481.318 188.745 481.317 188.748 481.315 188.75L464.625 205.441 459.312 200.753 453.345 206.72 447.276 212.62 441.954 207.674 426.336 223.293 427.75 224.707Z" fill="#000000" fill-rule="nonzero" fill-opacity="1"/><path d="M419.042 238 419.042 172 417.042 172 417.042 240 485.012 240 485.012 238 419.042 238Z" fill="#000000" fill-rule="nonzero" fill-opacity="1"/></g></g></g></g></g></svg>