<svg width="50" height="49" xmlns="http://www.w3.org/2000/svg" xmlns:xlink="http://www.w3.org/1999/xlink" xml:space="preserve" overflow="hidden"><g transform="translate(-886 -496)"><g><g><g><g><path d="M894.5 503 894.5 506.516 894.828 506.938 906.5 521.516 906.5 539.047 908.891 537.172 911.234 535.391C912.358 540.851 917.218 545 923 545 929.609 545 935 539.609 935 533 935 526.391 929.609 521 923 521 920.169 521 917.557 522.02 915.5 523.672L915.5 521.516 927.172 506.935 927.5 506.516 927.5 503 894.5 503ZM897.922 506 924.078 506 913.297 519.5 908.703 519.5 897.922 506ZM909.5 522.5 912.5 522.5 912.5 527.188C911.732 528.57 911.218 530.134 911.047 531.781L909.5 533 909.5 522.5ZM923 524C927.986 524 932 528.014 932 533 932 537.986 927.986 542 923 542 918.014 542 914 537.986 914 533 914 528.014 918.014 524 923 524ZM921.5 525.5 921.5 527.094C919.812 527.376 918.5 528.807 918.5 530.565 918.5 531.696 919.127 532.73 920.141 533.234L924.5 535.438C924.5 535.772 924.272 536 923.938 536L922.062 536C921.728 536 921.5 535.772 921.5 535.438L921.5 534.5 918.5 534.5 918.5 535.438C918.5 537.195 919.812 538.624 921.5 538.906L921.5 540.5 924.5 540.5 924.5 538.906C926.188 538.624 927.5 537.193 927.5 535.435 927.5 534.304 926.873 533.276 925.859 532.766L921.5 530.562C921.5 530.228 921.728 530 922.062 530L923.938 530C924.272 530 924.5 530.228 924.5 530.562L924.5 531.5 927.5 531.5 927.5 530.562C927.5 528.805 926.188 527.376 924.5 527.094L924.5 525.5 921.5 525.5Z" fill="#000000" fill-rule="nonzero" fill-opacity="1"/></g></g></g></g></g></svg>