<svg width="2307" height="1483" xmlns="http://www.w3.org/2000/svg" xmlns:xlink="http://www.w3.org/1999/xlink" xml:space="preserve" overflow="hidden"><defs><clipPath id="clip0"><rect x="1028" y="613" width="2307" height="1483"/></clipPath></defs><g clip-path="url(#clip0)" transform="translate(-1028 -613)"><path d="M1028 1203.07C1667.5 626 1667.5 626 1667.5 626 2307 1203.64 2307 1203.64 2307 1203.64 2029.23 1481.53 2029.23 1481.53 2029.23 1481.53 1939.52 1386.03 1939.52 1386.03 1939.52 1386.03 1939.52 2096 1939.52 2096 1939.52 2096 1798.05 2096 1536.95 2096 1395.48 2096 1395.48 1394.08 1395.48 1394.08 1395.48 1394.08 1310.94 1487.86 1310.94 1487.86 1310.94 1487.86 1028 1203.07 1028 1203.07 1028 1203.07Z" fill="#47D45A" fill-rule="evenodd"/><path d="M1516 1059C1516 975.605 1583.6 908 1667 908 1750.4 908 1818 975.605 1818 1059 1818 1142.39 1750.4 1210 1667 1210 1583.6 1210 1516 1142.39 1516 1059Z" stroke="#76C3EB" stroke-width="13.75" stroke-miterlimit="8" fill="#FFFFFF" fill-rule="evenodd"/><path d="M2057 1509.94C2696 2087 2696 2087 2696 2087 3335 1509.37 3335 1509.37 3335 1509.37 3057.45 1231.48 3057.45 1231.48 3057.45 1231.48 2967.8 1326.99 2967.8 1326.99 2967.8 1326.99 2967.8 613 2967.8 613 2967.8 613 2826.44 613 2565.56 613 2424.2 613 2424.2 1318.93 2424.2 1318.93 2424.2 1318.93 2339.72 1225.15 2339.72 1225.15 2339.72 1225.15 2057 1509.94 2057 1509.94 2057 1509.94Z" fill="#0070C0" fill-rule="evenodd"/><path d="M2545 1652C2545 1568.61 2612.61 1501 2696 1501 2779.4 1501 2847 1568.61 2847 1652 2847 1735.4 2779.4 1803 2696 1803 2612.61 1803 2545 1735.4 2545 1652Z" stroke="#B5DA9D" stroke-width="13.75" stroke-miterlimit="8" fill="#FFFFFF" fill-rule="evenodd"/><text fill="#FFFFFF" font-family="Open Sans Light,Open Sans Light_MSFontService,sans-serif" font-weight="700" font-size="110" transform="matrix(1 0 0 1 2348.56 1463)">DOWN</text><text fill="#FFFFFF" font-family="Open Sans Light,Open Sans Light_MSFontService,sans-serif" font-weight="700" font-size="110" transform="matrix(1 0 0 1 2687.22 1463)">GRADE</text><text fill="#FFFFFF" font-family="Open Sans Light,Open Sans Light_MSFontService,sans-serif" font-weight="700" font-size="110" transform="matrix(1 0 0 1 1414.1 1460)">UPGRADE</text><text fill="#FFFFFF" font-family="Open Sans Light,Open Sans Light_MSFontService,sans-serif" font-weight="300" font-size="64" transform="matrix(1 0 0 1 1513.28 1661)">From Total </text><text fill="#FFFFFF" font-family="Open Sans Light,Open Sans Light_MSFontService,sans-serif" font-weight="300" font-size="64" transform="matrix(1 0 0 1 1518.76 1776)">Upgrades, </text><text fill="#FFFFFF" font-family="Open Sans Light,Open Sans Light_MSFontService,sans-serif" font-weight="300" font-size="64" transform="matrix(1 0 0 1 1482.59 1892)">Popular Plan </text><text fill="#FFFFFF" font-family="Open Sans Light,Open Sans Light_MSFontService,sans-serif" font-weight="300" font-size="64" transform="matrix(1 0 0 1 1512.68 2007)">Selected is</text><text fill="#FFFFFF" font-family="Open Sans Light,Open Sans Light_MSFontService,sans-serif" font-weight="300" font-size="64" transform="matrix(1 0 0 1 2537.49 783)">From Total </text><text fill="#FFFFFF" font-family="Open Sans Light,Open Sans Light_MSFontService,sans-serif" font-weight="300" font-size="64" transform="matrix(1 0 0 1 2517.25 898)">Downgrade, </text><text fill="#FFFFFF" font-family="Open Sans Light,Open Sans Light_MSFontService,sans-serif" font-weight="300" font-size="64" transform="matrix(1 0 0 1 2506.8 1014)">Popular Plan </text><text fill="#FFFFFF" font-family="Open Sans Light,Open Sans Light_MSFontService,sans-serif" font-weight="300" font-size="64" transform="matrix(1 0 0 1 2570.69 1129)">Exited is</text></g></svg>