<svg width="1279" height="1470" xmlns="http://www.w3.org/2000/svg" xmlns:xlink="http://www.w3.org/1999/xlink" xml:space="preserve" overflow="hidden"><defs><clipPath id="clip0"><rect x="1028" y="626" width="1279" height="1470"/></clipPath></defs><g clip-path="url(#clip0)" transform="translate(-1028 -626)"><path d="M1028 1203.07C1667.5 626 1667.5 626 1667.5 626 2307 1203.64 2307 1203.64 2307 1203.64 2029.23 1481.53 2029.23 1481.53 2029.23 1481.53 1939.52 1386.03 1939.52 1386.03 1939.52 1386.03 1939.52 2096 1939.52 2096 1939.52 2096 1798.05 2096 1536.95 2096 1395.48 2096 1395.48 1394.08 1395.48 1394.08 1395.48 1394.08 1310.94 1487.86 1310.94 1487.86 1310.94 1487.86 1028 1203.07 1028 1203.07 1028 1203.07Z" fill="#2099D8" fill-rule="evenodd"/></g></svg>