<svg width="49" height="48" xmlns="http://www.w3.org/2000/svg" xmlns:xlink="http://www.w3.org/1999/xlink" xml:space="preserve" overflow="hidden"><g transform="translate(-332 -256)"><g><g><g><g><path d="M357 260.5C346.201 260.5 337.5 269.201 337.5 280 337.5 290.799 346.201 299.5 357 299.5 367.799 299.5 376.5 290.799 376.5 280 376.5 277.902 376.219 275.81 375.469 273.859L373.031 276.25C373.33 277.451 373.5 278.652 373.5 280 373.5 289.152 366.152 296.5 357 296.5 347.848 296.5 340.5 289.152 340.5 280 340.5 270.848 347.848 263.5 357 263.5 361.5 263.5 365.543 265.293 368.391 268.141L370.5 266.031C367.049 262.58 362.25 260.5 357 260.5ZM373.922 266.922 357 283.844 350.578 277.422 348.422 279.578 355.922 287.078 357 288.109 358.078 287.078 376.078 269.078Z" fill="#000000" fill-rule="nonzero" fill-opacity="1"/></g></g></g></g></g></svg>